<?xml version="1.0" encoding="UTF-8"?>
<svg width="85px" height="54px" viewBox="0 0 85 54" version="1.1" xmlns="http://www.w3.org/2000/svg" xmlns:xlink="http://www.w3.org/1999/xlink">
    <!-- Generator: Sketch 48.2 (47327) - http://www.bohemiancoding.com/sketch -->
    <title>Group 26</title>
    <desc>Created with Sketch.</desc>
    <defs></defs>
    <g id="BL-main_Light" stroke="none" stroke-width="1" fill="none" fill-rule="evenodd" transform="translate(-428.000000, -951.000000)">
        <g id="Benefits" transform="translate(0.000000, 859.000000)" stroke-width="3">
            <g id="Group-11" transform="translate(430.000000, 94.000000)">
                <g id="Group-26">
                    <path d="M40.5,5.38366351 C34.713023,9.96250664 31,17.0476418 31,25 C31,32.9523582 34.713023,40.0374934 40.5,44.6163365 C36.2394569,47.9874158 30.8547606,50 25,50 C11.1928813,50 0,38.8071187 0,25 C0,11.1928813 11.1928813,0 25,0 C30.8547606,0 36.2394569,2.01258418 40.5,5.38366351 Z" id="Combined-Shape" stroke="#FFFFFF"></path>
                    <path d="M40.5,44.6163365 C46.286977,40.0374934 50,32.9523582 50,25 C50,17.0476418 46.286977,9.96250664 40.5,5.38366351 C44.7605431,2.01258418 50.1452394,0 56,0 C69.8071187,0 81,11.1928813 81,25 C81,38.8071187 69.8071187,50 56,50 C50.1452394,50 44.7605431,47.9874158 40.5,44.6163365 Z" id="Combined-Shape" stroke="#FFA6B4"></path>
                </g>
            </g>
        </g>
    </g>
</svg>