<?xml version="1.0" encoding="UTF-8"?>
<svg width="152px" height="33px" viewBox="0 0 152 33" version="1.1" xmlns="http://www.w3.org/2000/svg" xmlns:xlink="http://www.w3.org/1999/xlink">
    <!-- Generator: Sketch 47 (45396) - http://www.bohemiancoding.com/sketch -->
    <title>Logo</title>
    <desc>Created with Sketch.</desc>
    <defs></defs>
    <g id="Page-1" stroke="none" stroke-width="1" fill="none" fill-rule="evenodd">
        <g id="BL-main_Light" transform="translate(-137.000000, -36.000000)" fill="#7D10DE">
            <g id="Header" transform="translate(137.000000, 35.000000)">
                <g id="Logo" transform="translate(0.000000, 1.000000)">
                    <path d="M102.307692,15.3461538 L102.307692,0 L133,0 L133,15.3461538 L102.307692,15.3461538 Z M112.052115,11.6923077 L112.052115,3.86722506 L110.879958,3.86722506 L110.879958,7.96709736 C110.879958,8.25612374 110.890662,8.6584353 110.912072,9.1740441 C110.933481,9.68965289 110.947754,9.98848742 110.95489,10.0705566 L110.922776,10.0705566 L107.085168,3.86722506 L105.532997,3.86722506 L105.532997,11.6923077 L106.694449,11.6923077 L106.694449,7.62454928 C106.694449,7.07504232 106.669471,6.46845284 106.619516,5.80476262 L106.592755,5.45686223 L106.635573,5.45686223 L110.483887,11.6923077 L112.052115,11.6923077 Z M120.529751,11.6923077 L117.511046,7.29805814 C118.103372,6.61652679 119.082836,5.4729272 120.449467,3.86722506 L118.993637,3.86722506 L116.879473,6.36675556 C116.533355,6.76282875 116.185458,7.17495279 115.835772,7.60314002 L115.835772,3.86722506 L114.556569,3.86722506 L114.556569,11.6923077 L115.835772,11.6923077 L115.835772,8.7645921 L116.590448,8.14907602 L119.04716,11.6923077 L120.529751,11.6923077 Z M128.172427,11.6923077 L128.172427,3.86722506 L126.887872,3.86722506 L126.887872,7.06790865 L123.280412,7.06790865 L123.280412,3.86722506 L122.001209,3.86722506 L122.001209,11.6923077 L123.280412,11.6923077 L123.280412,8.16513296 L126.887872,8.16513296 L126.887872,11.6923077 L128.172427,11.6923077 Z" id="Combined-Shape"></path>
                    <path d="M102.307692,32.8846154 L102.307692,17.5384615 L152,17.5384615 L152,32.8846154 L102.307692,32.8846154 Z M110.775766,27.1059007 C110.775766,26.7526462 110.713323,26.4457833 110.588435,26.1853027 C110.463547,25.9248222 110.267298,25.6911068 109.999681,25.4841496 C109.732064,25.2771925 109.311019,25.0541816 108.736535,24.8151104 C108.226278,24.604585 107.873029,24.4350968 107.676777,24.3066406 C107.480524,24.1781845 107.339581,24.0417018 107.253944,23.8971886 C107.168306,23.7526754 107.125488,23.578727 107.125488,23.375338 C107.125488,23.0791752 107.232533,22.8409996 107.446627,22.6608042 C107.660721,22.4806087 107.97472,22.3905123 108.388634,22.3905123 C108.934573,22.3905123 109.555435,22.5368074 110.251239,22.829402 L110.658015,21.7857009 C109.915824,21.457424 109.170076,21.293288 108.420748,21.293288 C107.639306,21.293288 107.01666,21.4806171 106.552791,21.8552809 C106.088921,22.2299448 105.85699,22.7437618 105.85699,23.3967473 C105.85699,23.9177084 106.003285,24.3637301 106.29588,24.7348257 C106.588474,25.1059213 107.091587,25.4359774 107.805232,25.7250038 C108.497468,26.0033255 108.954194,26.2441772 109.175424,26.4475661 C109.396655,26.650955 109.507268,26.8989431 109.507268,27.1915377 C109.507268,27.5162464 109.386842,27.7749389 109.145987,27.9676232 C108.905131,28.1603075 108.531365,28.2566481 108.024677,28.2566481 C107.678559,28.2566481 107.304793,28.2084778 106.903367,28.1121357 C106.501942,28.0157935 106.122823,27.8837711 105.766001,27.7160645 L105.766001,28.9256873 C106.32978,29.2004408 107.05412,29.3378155 107.93904,29.3378155 C108.82396,29.3378155 109.51797,29.1397819 110.02109,28.7437087 C110.52421,28.3476355 110.775766,27.801705 110.775766,27.1059007 Z M115.431851,29.2307692 L115.431851,22.5029109 L117.733346,22.5029109 L117.733346,21.4056866 L111.851153,21.4056866 L111.851153,22.5029109 L114.152648,22.5029109 L114.152648,29.2307692 L115.431851,29.2307692 Z M125.504477,21.4056866 L124.225274,21.4056866 L124.225274,26.3458721 C124.225274,27.6125927 123.622253,28.2459435 122.416192,28.2459435 C121.795321,28.2459435 121.335026,28.0925121 121.035295,27.7856445 C120.735564,27.478777 120.585701,27.0024259 120.585701,26.3565768 L120.585701,21.4056866 L119.301146,21.4056866 L119.301146,26.4475661 C119.301146,27.3467593 119.570543,28.0532576 120.109345,28.5670823 C120.648147,29.080907 121.402816,29.3378155 122.373374,29.3378155 C123.026359,29.3378155 123.587454,29.2209578 124.056676,28.987239 C124.525898,28.7535201 124.8845,28.4198959 125.132491,27.9863563 C125.380483,27.5528167 125.504477,27.0470281 125.504477,26.4689754 L125.504477,21.4056866 Z M134.308605,25.2432955 C134.308605,24.0265301 133.962492,23.0827482 133.270256,22.4119216 C132.57802,21.7410949 131.609261,21.4056866 130.36395,21.4056866 L127.944704,21.4056866 L127.944704,29.2307692 L130.1338,29.2307692 C131.48259,29.2307692 132.515576,28.8891166 133.23279,28.2058012 C133.950004,27.5224857 134.308605,26.5349937 134.308605,25.2432955 Z M136.427693,29.2307692 L137.706896,29.2307692 L137.706896,21.4056866 L136.427693,21.4056866 L136.427693,29.2307692 Z M147.158654,25.3075233 C147.158654,24.030098 146.841086,23.0399299 146.205942,22.3369892 C145.570798,21.6340485 144.671618,21.2825834 143.508376,21.2825834 C142.327293,21.2825834 141.418301,21.6286962 140.781372,22.3209322 C140.144444,23.0131683 139.825984,24.0051205 139.825984,25.2968187 C139.825984,26.5885168 140.14266,27.5849293 140.77602,28.2860859 C141.40938,28.9872425 142.316588,29.3378155 143.497671,29.3378155 C144.664482,29.3378155 145.566337,28.9845663 146.203266,28.2780574 C146.840194,27.5715485 147.158654,26.5813803 147.158654,25.3075233 Z" id="Combined-Shape"></path>
                    <path d="M141.185472,25.3075233 C141.185472,26.2709446 141.379937,27.0015281 141.768874,27.4992957 C142.157811,27.9970634 142.734071,28.2459435 143.497671,28.2459435 C144.257704,28.2459435 144.831288,27.9997395 145.21844,27.5073242 C145.605593,27.0149089 145.799166,26.2816493 145.799166,25.3075233 C145.799166,24.3476702 145.607377,23.6197628 145.223793,23.1237793 C144.840208,22.6277957 144.268408,22.3798077 143.508376,22.3798077 C142.741207,22.3798077 142.162271,22.6277957 141.77155,23.1237793 C141.380829,23.6197628 141.185472,24.3476702 141.185472,25.3075233 Z" id="STUDIO"></path>
                    <path d="M132.959822,25.286114 C132.959822,23.4127949 132.083835,22.4761493 130.331836,22.4761493 L129.223907,22.4761493 L129.223907,28.1549542 L130.1338,28.1549542 C132.017824,28.1549542 132.959822,27.1986837 132.959822,25.286114 Z" id="STUDIO"></path>
                    <path d="M0,32.8846154 L96.4615385,32.8846154 L96.4615385,0 L0,0 L0,32.8846154 Z M65.1803632,15.5907933 L94.3389367,15.5907933 L94.3389367,2.08949534 L65.1803632,2.08949534 L65.1803632,15.5907933 Z M43.0039044,22.8420083 L43.0222253,22.8420083 L43.0222253,10.0341416 L51.0923744,2.08949534 L62.7556543,2.08949534 L62.7556543,30.7925436 L51.0437681,30.7925436 L43.0039044,22.8420083 Z M33.5234234,16.426665 L33.5955852,16.3548927 L33.5955852,2.08949534 L48.0914934,2.08949534 L33.5955852,16.3548927 L33.5955852,16.4977012 L33.5234234,16.426665 Z M3.43086029,2.08949534 L31.2826709,2.08949534 L31.2826709,29.5087388 L3.43086029,2.08949534 Z M2.12372346,3.76160691 L29.587431,30.7925436 L2.12372346,30.7925436 L2.12372346,3.76160691 Z M36.5231828,16.4296095 L40.8973801,12.1247412 L40.8973801,20.7572978 L36.5231828,16.4296095 Z M33.5955852,16.4977012 L48.0417653,30.7925436 L33.5955852,30.7925436 L33.5955852,16.4977012 Z M65.1803632,30.7925436 L94.3389367,30.7925436 L94.3389367,17.6813928 L65.1803632,17.6813928 L65.1803632,30.7925436 Z" id="Fill-3"></path>
                </g>
            </g>
        </g>
    </g>
</svg>