<?xml version="1.0" encoding="UTF-8"?>
<svg width="31px" height="30px" viewBox="0 0 31 30" version="1.1" xmlns="http://www.w3.org/2000/svg" xmlns:xlink="http://www.w3.org/1999/xlink">
    <!-- Generator: Sketch 48.2 (47327) - http://www.bohemiancoding.com/sketch -->
    <title>Group 19</title>
    <desc>Created with Sketch.</desc>
    <defs></defs>
    <g id="BL-main_Light" stroke="none" stroke-width="1" fill="none" fill-rule="evenodd" transform="translate(-235.000000, -4838.000000)" opacity="0.5">
        <g id="Footer" transform="translate(143.000000, 4838.000000)">
            <g id="Group-7">
                <g id="Group-19" transform="translate(92.000000, 0.000000)">
                    <ellipse id="Oval-2-Copy-2" stroke="#1D3649" opacity="0.300000012" cx="15.4561097" cy="15" rx="14.644582" ry="14.5"></ellipse>
                    <path d="M20.4524321,11.1438056 C20.4525062,11.5006387 20.2355306,11.822373 19.9026964,11.958961 C19.5698622,12.095549 19.1867282,12.0200868 18.9319771,11.7677677 C18.6772259,11.5154487 18.6010363,11.1359723 18.7389409,10.8063157 C18.8768454,10.476659 19.2016809,10.2617547 19.5619534,10.2618282 C20.0537093,10.2619284 20.4523309,10.6567444 20.4524321,11.1438056 L20.4524321,11.1438056 Z M23.281365,15.1269531 L23.2811817,15.1380618 L23.2306009,18.3365234 C23.2032651,20.7351696 21.246706,22.6730498 18.8249398,22.7001247 L15.5842865,22.7505493 L15.5730708,22.7503315 L12.3437798,22.7003788 C9.92197666,22.6733062 7.96535322,20.7354589 7.93789876,18.3367775 L7.887208,15.1269531 L7.88742791,15.1158445 L7.9378621,11.9172739 C7.9653941,9.51862488 9.92197264,7.58082209 12.3437431,7.55367267 L15.5842865,7.50335693 L15.5955022,7.50357475 L18.8247932,7.55352746 C21.2465268,7.58067914 23.2030409,9.5185149 23.2304543,11.9171287 L23.281365,15.1269531 Z M21.8478025,15.1269531 L21.7974416,11.9395639 C21.778842,10.3089243 20.4487551,8.99151929 18.8023984,8.97307737 L15.5842865,8.92330618 L12.3661746,8.97307737 C10.7198219,8.99155693 9.38973595,10.3089287 9.37105812,11.9395639 L9.32080719,15.1269531 L9.37105812,18.3143424 C9.3896778,19.9450018 10.7197974,21.2624069 12.3661746,21.2808289 L15.5842865,21.3306001 L18.8023984,21.2808289 C20.4487796,21.2624446 21.7789002,19.9450062 21.7974416,18.3143424 L21.8478025,15.1269531 Z M19.5369196,15.1269531 C19.5369196,16.7103996 18.5738785,18.1379291 17.0968626,18.7438844 C15.6198466,19.3498398 13.9197301,19.0148879 12.7892773,17.895217 C11.6588246,16.7755461 11.32066,15.091657 11.9324697,13.6287474 C12.5442794,12.1658378 13.9855775,11.212004 15.5842865,11.2120187 C17.7662582,11.2144595 19.5344755,12.9658122 19.5369196,15.1269531 L19.5369196,15.1269531 Z M18.1035403,15.1269531 C18.1035403,14.1177197 17.4897309,13.2078626 16.5483321,12.8216491 C15.6069333,12.4354356 14.5233387,12.6489243 13.8028295,13.3625653 C13.0823204,14.0762063 12.8667896,15.1494592 13.2567395,16.081865 C13.6466893,17.0142709 14.5653253,17.6222071 15.5842865,17.6221925 C16.9749704,17.620592 18.1019282,16.5043606 18.1035036,15.1269531 L18.1035403,15.1269531 Z" id="Shape" fill="#1D3649"></path>
                </g>
            </g>
        </g>
    </g>
</svg>