<?xml version="1.0" encoding="UTF-8"?>
<svg width="33px" height="33px" viewBox="0 0 33 33" version="1.1" xmlns="http://www.w3.org/2000/svg" xmlns:xlink="http://www.w3.org/1999/xlink">
    <!-- Generator: Sketch 48.2 (47327) - http://www.bohemiancoding.com/sketch -->
    <title>Group 25</title>
    <desc>Created with Sketch.</desc>
    <defs></defs>
    <g id="BL-main_Light" stroke="none" stroke-width="1" fill="none" fill-rule="evenodd" transform="translate(-1092.000000, -4836.000000)">
        <g id="Footer" transform="translate(143.000000, 4838.000000)">
            <g id="Group-5" transform="translate(951.000000, 0.000000)">
                <g id="Group-25">
                    <path d="M0,14.5 C0,22.509075 6.492375,29 14.5,29 C22.509075,29 29,22.509075 29,14.5 C29,6.49165 22.509075,0 14.5,0 C6.492375,0 0,6.49165 0,14.5 Z" id="Shape" stroke="#7D10DE" stroke-width="3"></path>
                    <path d="M11.658877,7.01856869 C12.4823261,6.85145816 13.0219683,7.84899078 13.4326695,8.53722233 C13.832455,9.20566448 14.3243413,9.98991129 14.125813,10.8599122 C14.0152921,11.3480509 13.6045909,11.6141084 13.2941773,11.9021542 C12.9878569,12.1865353 12.5212131,12.4474623 12.4079632,12.8842951 C12.2230795,13.593049 12.6276406,14.3369841 12.8780183,14.7606239 C13.4469963,15.7178448 14.134682,16.5805163 15.0127093,17.3508372 C15.4377372,17.7246371 16.0278643,18.2237699 16.6193559,18.0955052 C17.502841,17.9034747 17.7361629,16.732968 18.6981042,16.5768516 C19.613654,16.4280646 20.2331169,17.1412161 20.7502457,17.6190936 C21.248272,18.0815794 22.0519365,18.6737956 21.9973582,19.4661048 C21.9652935,19.9212611 21.625544,20.2034434 21.3308216,20.4782963 C21.0313236,20.7590126 20.7686658,21.0741772 20.4725789,21.2815995 C19.7555574,21.784397 18.8761657,22.0306652 17.8664685,21.9969499 C16.8765558,21.9639676 16.0879004,21.6026277 15.3722434,21.1929137 C13.972994,20.3910763 12.8671026,19.2630802 11.8253406,18.0060864 C10.8006344,16.770348 9.85438432,15.3073979 9.33111554,13.6897972 C8.67822347,11.6698119 9.02343077,9.59485612 10.0802017,8.30048241 C10.2589454,8.08060012 10.5413878,7.85118961 10.7999522,7.61518262 C11.0578343,7.3784427 11.296614,7.09186279 11.658877,7.01856869 L11.658877,7.01856869 Z" id="Shape" fill="#7D10DE"></path>
                </g>
            </g>
        </g>
    </g>
</svg>