<?xml version="1.0" encoding="UTF-8"?>
<svg width="31px" height="30px" viewBox="0 0 31 30" version="1.1" xmlns="http://www.w3.org/2000/svg" xmlns:xlink="http://www.w3.org/1999/xlink">
    <!-- Generator: Sketch 48.2 (47327) - http://www.bohemiancoding.com/sketch -->
    <title>Group 20</title>
    <desc>Created with Sketch.</desc>
    <defs></defs>
    <g id="BL-main_Light" stroke="none" stroke-width="1" fill="none" fill-rule="evenodd" transform="translate(-189.000000, -4838.000000)" opacity="0.5">
        <g id="Footer" transform="translate(143.000000, 4838.000000)">
            <g id="Group-7">
                <g id="Group-20" transform="translate(46.000000, 0.000000)">
                    <ellipse id="Oval-2-Copy" stroke="#1D3649" opacity="0.300000012" cx="15.7556265" cy="15" rx="14.644582" ry="14.5"></ellipse>
                    <path d="M16.3130028,19.5642832 C16.8591413,19.5642832 16.8591413,18.7841461 16.8591413,18.4815113 C16.8591413,17.9401254 17.4052798,17.3987394 17.9514183,17.3987394 C18.4975568,17.3987394 19.4341843,18.3272163 20.1359723,19.0228973 C20.6821108,19.5642832 20.6821108,19.5642832 21.2282492,19.5642832 L22.8666647,19.5642832 C22.8666647,19.5642832 23.9589417,19.5231379 23.9589417,18.4815113 C23.9589417,18.1431451 23.5848368,17.569276 22.3205262,16.3159675 C21.2282492,15.2331956 20.6679112,15.7924472 22.3205262,13.6090377 C23.3270595,12.2793937 24.0594312,11.07481 23.9338193,10.7272402 C23.8136689,10.3953706 21.014163,9.8669779 20.6821108,10.3607219 C19.5898338,11.9848798 19.3894009,12.3827985 19.0436953,13.0676517 C18.4975568,14.1504236 18.4434891,14.6918096 17.9514183,14.6918096 C17.4549784,14.6918096 17.4052798,13.6409794 17.4052798,13.0676517 C17.4052798,11.2778297 17.6668801,10.0120693 16.8591413,9.81933594 L15.2207258,9.81933594 C14.3414428,9.81933594 13.5823103,10.3607219 13.5823103,10.3607219 C13.5823103,10.3607219 12.9045525,10.8847835 13.0361718,10.9021079 C13.1989211,10.9237633 14.1284488,10.6779741 14.1284488,11.4434938 L14.1284488,12.5262657 C14.1284488,12.5262657 14.1333641,14.6918096 13.5823103,14.6918096 C13.0361718,14.6918096 11.9438949,12.5262657 10.8516179,10.9021079 C10.4228992,10.2648966 10.3054794,10.3607219 9.75934089,10.3607219 C9.17388043,10.3607219 8.66761004,10.3834601 8.12092541,10.3834601 C7.57478692,10.3834601 7.50488119,10.728323 7.57478692,10.9021079 C8.6670639,13.6090377 9.45186492,15.3089896 11.5271912,17.4507124 C13.4304838,19.4154021 14.7018943,19.5198896 15.7668643,19.5642832 C16.0399336,19.5756523 15.7668643,19.5642832 16.3130028,19.5642832 L16.3130028,19.5642832 Z" id="VK" fill="#1D3649"></path>
                </g>
            </g>
        </g>
    </g>
</svg>