<?xml version="1.0" encoding="UTF-8"?>
<svg width="31px" height="30px" viewBox="0 0 31 30" version="1.1" xmlns="http://www.w3.org/2000/svg" xmlns:xlink="http://www.w3.org/1999/xlink">
    <!-- Generator: Sketch 48.2 (47327) - http://www.bohemiancoding.com/sketch -->
    <title>Group 18</title>
    <desc>Created with Sketch.</desc>
    <defs></defs>
    <g id="BL-main_Light" stroke="none" stroke-width="1" fill="none" fill-rule="evenodd" transform="translate(-282.000000, -4838.000000)" opacity="0.5">
        <g id="Footer" transform="translate(143.000000, 4838.000000)">
            <g id="Group-7">
                <g id="Group-18" transform="translate(139.000000, 0.000000)">
                    <ellipse id="Oval-2-Copy-3" stroke="#1D3649" opacity="0.300000012" cx="15.5680954" cy="15" rx="14.644582" ry="14.5"></ellipse>
                    <path d="M22.97621,11.9860383 C22.97621,11.9860383 22.8344609,11.002385 22.4000217,10.5683782 C21.8480228,10.0001721 21.2292614,9.99731676 20.9457633,9.96352896 C18.914349,9.81933594 15.8650505,9.81933594 15.8650505,9.81933594 C15.8650505,9.81933594 12.8152682,9.81933594 10.7843377,9.96400484 C10.5008395,9.99731676 9.88207819,10.0001721 9.33007922,10.5688541 C8.89467248,11.002385 8.75340719,11.9860383 8.75340719,11.9860383 C8.75340719,11.9860383 8.60827161,12.9473252 8.60827161,14.102297 L8.60827161,15.5304266 C8.60827161,16.6853984 8.75340719,17.6904666 8.75340719,17.6904666 C8.75340719,17.6904666 8.89467248,18.6736441 9.33007922,19.1071749 C9.88207819,19.675857 10.6072723,19.6582492 10.9304408,19.7177348 C12.0915255,19.8271883 15.8650505,19.8133876 15.8650505,19.8133876 C15.8650505,19.8133876 18.914349,19.8562172 20.9457633,19.7120242 C21.2292614,19.6787123 21.8480228,19.675857 22.4000217,19.1071749 C22.8344609,18.67412 22.97621,17.6904666 22.97621,17.6904666 C22.97621,17.6904666 23.1218293,16.6858743 23.1218293,15.5309024 L23.1218293,14.1027729 C23.1218293,12.9473252 22.97621,11.9860383 22.97621,11.9860383 L22.97621,11.9860383 Z M14.5609337,16.7229933 L14.5609337,12.9159168 L18.4312158,14.819455 L14.5609337,16.7229933 L14.5609337,16.7229933 Z" id="Shape" fill="#1D3649"></path>
                </g>
            </g>
        </g>
    </g>
</svg>